<?xml version="1.0" ?><svg id="Layer_1" style="enable-background:new 0 0 512 512;" version="1.1" viewBox="0 0 512 512" xml:space="preserve" xmlns="http://www.w3.org/2000/svg" xmlns:xlink="http://www.w3.org/1999/xlink"><style type="text/css">
	.st0{fill:#008282;}
	.st1{fill:#97BD18;}
	.st2{fill:#D5E548;}
	.st3{fill:#00CDC3;}
	.st4{fill:#F5A506;}
	.st5{fill:#D22D33;}
	.st6{fill:#EF867C;}
	.st7{fill:#FBDF04;}
	.st8{fill:#FFFFFF;}
</style><g id="XMLID_336_"><path class="st0" d="M470.9,291.1H307.1L256,256l51.1-35.1h163.8c19.4,0,35.1,15.7,35.1,35.1v0   C506,275.4,490.3,291.1,470.9,291.1z" id="XMLID_325_"/><path class="st1" d="M41.1,291.1h163.8L256,256l-51.1-35.1H41.1C21.7,220.9,6,236.6,6,256v0   C6,275.4,21.7,291.1,41.1,291.1z" id="XMLID_337_"/><circle class="st2" cx="44.8" cy="256" id="XMLID_341_" r="25.5"/><circle class="st3" cx="467.2" cy="256" id="XMLID_343_" r="25.5"/><path class="st4" d="M220.9,470.9V307.1L256,256l35.1,51.1v163.8c0,19.4-15.7,35.1-35.1,35.1h0   C236.6,506,220.9,490.3,220.9,470.9z" id="XMLID_348_"/><path class="st5" d="M220.9,41.1v163.8L256,256l35.1-51.1V41.1C291.1,21.7,275.4,6,256,6h0   C236.6,6,220.9,21.7,220.9,41.1z" id="XMLID_347_"/><circle class="st6" cx="256" cy="44.8" id="XMLID_345_" r="25.5"/><circle class="st7" cx="256" cy="467.2" id="XMLID_344_" r="25.5"/><path class="st8" d="M260.7,57.1h-5.5V38.2h-4.7V34l10.2-0.8V57.1z" id="XMLID_406_"/><path class="st8" d="M475.7,267.7h-16.4v-3.6l7.3-8c1-1.1,1.7-2.1,2.1-2.9c0.5-0.9,0.7-1.6,0.7-2.3   c0-0.9-0.2-1.6-0.6-2.2c-0.4-0.5-1.1-0.8-2-0.8c-0.9,0-1.5,0.3-2,1c-0.5,0.7-0.7,1.6-0.7,2.7h-5.4l0-0.1c-0.1-2.2,0.7-4,2.2-5.5   c1.5-1.5,3.5-2.3,5.9-2.3c2.6,0,4.6,0.6,6,1.9c1.4,1.3,2.1,3,2.1,5.2c0,1.5-0.4,2.8-1.2,4c-0.8,1.1-2.2,2.8-4.3,5.1l-2.9,3.4l0,0.1   h9.1V267.7z" id="XMLID_404_"/><path class="st8" d="M255.2,465.3c1,0,1.7-0.3,2.3-0.8c0.5-0.5,0.8-1.3,0.8-2.2c0-0.7-0.3-1.4-0.8-1.9   c-0.5-0.5-1.3-0.8-2.2-0.8c-0.7,0-1.3,0.2-1.8,0.6c-0.5,0.4-0.7,0.9-0.7,1.6h-5.3l0-0.1c-0.1-1.9,0.7-3.4,2.2-4.6s3.4-1.7,5.6-1.7   c2.6,0,4.6,0.6,6.1,1.8c1.5,1.2,2.3,2.8,2.3,5c0,1.1-0.3,2.1-1,2.9c-0.6,0.9-1.5,1.6-2.6,2.1c1.3,0.5,2.3,1.2,2.9,2.1   c0.7,0.9,1,2.1,1,3.4c0,2.2-0.8,3.9-2.5,5.1c-1.7,1.2-3.8,1.9-6.3,1.9c-2.2,0-4.2-0.6-5.8-1.7c-1.6-1.2-2.4-2.8-2.4-5l0-0.1h5.3   c0,0.8,0.3,1.4,0.8,1.9c0.5,0.5,1.2,0.8,2,0.8c1,0,1.8-0.3,2.4-0.8c0.6-0.5,0.9-1.2,0.9-2c0-1.1-0.3-2-0.9-2.5   c-0.6-0.5-1.4-0.8-2.5-0.8h-2.6v-4.1H255.2z" id="XMLID_402_"/><path class="st8" d="M48.7,258.5H51v4.2h-2.4v5h-5.5v-5h-9.4l-0.3-3.4l9.7-15.2v0h5.5V258.5z M38.2,258.5h5v-7.3   l-0.1,0l-0.6,1.2L38.2,258.5z" id="XMLID_399_"/></g></svg>