<svg width="27" height="27" viewBox="0 0 27 27" fill="none" xmlns="http://www.w3.org/2000/svg">
<path d="M22 18V26" stroke="#737373" stroke-width="2" stroke-linecap="round"/>
<path d="M18 22L26 22" stroke="#737373" stroke-width="2" stroke-linecap="round"/>
<path d="M1 12.5C2.5 13.5 6.6 16 9 16C11 12.5 15 12.5 17 16C19 16 24 13.5 26 12.5M19 4C19 2.34315 17.6569 1 16 1H11C9.34315 1 8 2.34315 8 4M26 15.5V8C26 6.34315 24.6569 5 23 5H4C2.34315 5 1 6.34315 1 8V23C1 24.6569 2.34315 26 4 26H16.5M15 18C15 19.1046 14.1046 20 13 20C11.8954 20 11 19.1046 11 18C11 16.8954 11.8954 16 13 16C14.1046 16 15 16.8954 15 18Z" stroke="#737373" stroke-width="1.5" stroke-linecap="round"/>
</svg>
