<svg width="24" height="25" viewBox="0 0 24 25" fill="none" xmlns="http://www.w3.org/2000/svg">
<path d="M23 11.5V9.03518C23 8.70083 22.8329 8.3886 22.5547 8.20313L13.061 1.87399C12.7219 1.64795 12.2796 1.65025 11.9429 1.87981L1.93666 8.70228C1.66346 8.88855 1.5 9.19784 1.5 9.5285V22.5C1.5 23.0523 1.94772 23.5 2.5 23.5H15.5M23 16.5V22.5C23 23.0523 22.5523 23.5 22 23.5H15.5M15.5 23.5V17.5C15.5 16.9477 15.0523 16.5 14.5 16.5H11C10.4477 16.5 10 16.9477 10 17.5V20" stroke="black" stroke-width="2" stroke-linecap="round"/>
</svg>
