<svg width="26" height="26" viewBox="0 0 26 26" fill="none" xmlns="http://www.w3.org/2000/svg">
<circle cx="12.5" cy="12.5" r="4.75" stroke="#737373" stroke-width="1.5"/>
<path d="M22.4857 15.755L21.7726 15.5227C21.6153 16.0055 21.4214 16.4718 21.1939 16.9183C20.8525 17.5888 20.9265 18.4516 21.5049 19.03L22.3044 19.8295C22.402 19.9271 22.402 20.0854 22.3044 20.183L20.183 22.3043C20.0854 22.402 19.9271 22.402 19.8295 22.3044L19.0301 21.5049C18.4516 20.9265 17.5888 20.8525 16.9184 21.1939C16.4718 21.4214 16.0055 21.6153 15.5227 21.7726C14.8077 22.0055 14.25 22.6677 14.25 23.4857V24.2515C14.25 24.3896 14.1381 24.5015 14 24.5015H11C10.8619 24.5015 10.75 24.3896 10.75 24.2515V23.4857C10.75 22.6677 10.1923 22.0055 9.47729 21.7726C9.10355 21.6509 8.73969 21.5071 8.38723 21.3429C7.72534 21.0345 6.89439 21.1224 6.33376 21.683L6.86409 22.2133L6.33376 21.683L5.71239 22.3044L6.24272 22.8347L5.71239 22.3044C5.61476 22.402 5.45647 22.402 5.35884 22.3044L3.23752 20.183C3.13989 20.0854 3.13989 19.9271 3.23752 19.8295L3.68354 19.3835C4.27972 18.7873 4.33886 17.8927 3.96376 17.2152C3.66731 16.6797 3.41987 16.1136 3.2274 15.5227C2.99449 14.8077 2.33229 14.25 1.51429 14.25H1C0.861929 14.25 0.75 14.1381 0.75 14V11C0.75 10.8619 0.861929 10.75 1 10.75H1.51429C2.33229 10.75 2.99449 10.1923 3.2274 9.47729C3.38467 8.99449 3.57865 8.52819 3.80607 8.08165C4.14753 7.4112 4.07352 6.54838 3.49508 5.96994L3.23744 5.7123C3.13981 5.61467 3.13981 5.45638 3.23744 5.35875L5.35876 3.23743C5.45639 3.13979 5.61468 3.13979 5.71231 3.23743L5.96996 3.49507C6.54839 4.07351 7.41121 4.14753 8.08166 3.80607C8.5282 3.57864 8.9945 3.38467 9.47729 3.2274C10.1923 2.99449 10.75 2.33229 10.75 1.51429V1C10.75 0.861929 10.8619 0.75 11 0.75H14C14.1381 0.75 14.25 0.861929 14.25 1V1.51429C14.25 2.33229 14.8077 2.99449 15.5227 3.2274C16.0782 3.40836 16.6119 3.63791 17.1188 3.9111C17.7941 4.2751 18.6783 4.21097 19.2687 3.6206L19.6518 3.23744C19.7495 3.13981 19.9078 3.13981 20.0054 3.23744L22.1267 5.35876C22.2243 5.45639 22.2243 5.61468 22.1267 5.71231L21.6258 6.21326C21.0593 6.77974 20.9758 7.62115 21.295 8.28602C21.4793 8.6699 21.6392 9.06766 21.7726 9.47729C22.0055 10.1923 22.6677 10.75 23.4857 10.75H24.2515C24.3896 10.75 24.5015 10.8619 24.5015 11V14C24.5015 14.1381 24.3896 14.25 24.2515 14.25H23.4857C22.6677 14.25 22.0055 14.8077 21.7726 15.5227L22.4857 15.755Z" stroke="#737373" stroke-width="1.5"/>
</svg>
